<?xml version="1.0" standalone="no"?>
<!DOCTYPE svg PUBLIC "-//W3C//DTD SVG 20010904//EN"
 "http://www.w3.org/TR/2001/REC-SVG-20010904/DTD/svg10.dtd">
<svg version="1.0" xmlns="http://www.w3.org/2000/svg"
 width="1280.000000pt" height="720.000000pt" viewBox="0 0 1280.000000 720.000000"
 preserveAspectRatio="xMidYMid meet">
<metadata>
Created by potrace 1.16, written by Peter Selinger 2001-2019
</metadata>
<g transform="translate(0.000000,720.000000) scale(0.100000,-0.100000)"
fill="#49bce2" stroke="none">
<path d="M1970 5966 c-712 -103 -1308 -570 -1564 -1228 -168 -430 -180 -904
-35 -1340 199 -598 679 -1068 1279 -1253 221 -68 308 -80 580 -79 229 0 254 2
375 28 815 173 1422 808 1552 1621 25 153 25 458 0 613 -40 255 -144 528 -285
752 -96 151 -283 356 -437 480 -252 201 -561 338 -895 397 -120 21 -450 26
-570 9z m534 -151 c13 -10 24 -11 37 -5 24 13 29 13 29 -5 0 -8 -8 -20 -18
-26 -18 -11 -18 -15 4 -113 13 -55 23 -109 24 -119 0 -28 -42 -17 -57 14 -18
37 -72 48 -92 19 -14 -21 -61 -28 -61 -9 0 6 27 56 61 111 44 72 58 103 50
111 -13 13 -15 37 -3 37 4 0 15 -7 26 -15z m-298 -60 c7 -19 14 -43 14 -54 0
-38 19 -31 30 11 15 62 24 73 56 73 l29 0 3 -113 c3 -113 3 -113 -20 -110 -19
2 -24 11 -28 48 l-5 45 -16 -45 c-13 -36 -20 -45 -39 -45 -19 0 -26 7 -32 35
-16 63 -22 66 -27 15 -5 -41 -9 -50 -26 -50 -18 0 -20 7 -21 93 -2 121 1 132
38 132 24 0 32 -6 44 -35z m-236 -95 c17 -74 21 -103 13 -111 -19 -19 -40 -3
-48 38 l-8 38 -12 -50 c-8 -38 -16 -51 -32 -53 -16 -2 -26 7 -43 43 -27 55
-36 53 -20 -4 12 -46 8 -61 -19 -61 -15 0 -23 18 -40 93 -25 110 -26 123 -5
131 37 14 52 5 75 -44 13 -27 27 -50 31 -50 5 0 8 24 8 53 0 59 12 77 50 77
25 0 28 -5 50 -100z m844 30 c5 -5 6 -16 2 -25 -4 -12 -13 -15 -35 -10 -28 6
-30 4 -44 -47 -9 -29 -19 -65 -22 -80 -8 -30 -25 -40 -45 -28 -12 7 -11 21 4
82 11 40 21 78 23 85 3 6 -6 14 -19 18 -29 10 -40 26 -27 41 8 9 27 7 82 -8
40 -11 76 -24 81 -28z m-1224 28 c0 -7 -4 -20 -10 -28 -6 -11 -3 -17 13 -25
38 -18 160 -153 154 -170 -8 -19 -36 -19 -58 1 -15 13 -21 14 -52 0 -27 -11
-36 -21 -39 -43 -2 -20 -9 -29 -26 -31 l-23 -4 2 125 c1 68 -1 129 -5 135 -9
16 11 52 29 52 8 0 15 -6 15 -12z m1444 -124 c25 -14 51 -34 56 -44 36 -67
-26 -180 -98 -180 -22 0 -122 47 -122 57 -1 17 96 193 106 193 6 0 32 -12 58
-26z m-1557 -91 c28 -49 48 -93 46 -100 -11 -28 -34 -21 -58 17 -25 40 -26 40
-55 25 -34 -18 -36 -26 -14 -65 19 -31 12 -63 -12 -58 -16 3 -114 162 -114
184 0 7 8 15 17 18 17 7 30 -5 53 -43 6 -12 13 -12 39 -1 35 14 38 26 15 58
-19 27 -12 52 14 52 14 0 34 -26 69 -87z m1741 -26 c8 -10 1 -28 -29 -73 -46
-68 -49 -109 -10 -109 18 0 35 13 59 45 56 75 61 80 77 74 8 -4 15 -14 15 -23
-1 -24 -82 -134 -110 -148 -44 -22 -129 32 -130 83 0 26 88 164 105 164 7 0
17 -6 23 -13z m-2008 -80 l0 -53 63 -20 c63 -20 77 -38 45 -58 -16 -10 -28 -8
-105 21 -18 7 -16 -38 2 -64 14 -19 13 -23 -1 -38 -20 -20 -25 -16 -99 81 -55
71 -57 76 -41 92 16 16 19 15 42 -12 14 -15 27 -26 29 -24 3 3 8 27 11 54 7
53 19 74 40 74 10 0 14 -15 14 -53z m1320 -31 c149 -35 237 -68 359 -132 151
-79 221 -132 347 -258 260 -262 403 -583 420 -946 11 -232 -21 -416 -109 -629
-153 -370 -477 -675 -857 -804 -173 -59 -250 -71 -465 -71 -182 0 -210 2 -312
26 -302 72 -545 215 -752 444 -176 196 -283 407 -343 679 -32 144 -32 425 0
573 85 394 317 726 657 939 144 91 388 179 557 202 127 17 377 6 498 -23z
m895 -121 c-20 -83 -20 -84 23 -42 41 40 72 48 72 20 -1 -27 -135 -164 -153
-157 -29 11 -29 50 -1 149 5 15 -5 9 -34 -18 -38 -37 -71 -46 -79 -22 -2 6 31
46 72 90 74 80 75 80 94 60 19 -19 19 -23 6 -80z m-2457 -53 c19 -13 4 -39
-26 -47 -38 -9 -52 -24 -52 -52 0 -65 104 -100 124 -41 12 34 4 43 -23 26 -15
-9 -23 -10 -32 -1 -8 8 -4 20 17 47 16 20 32 36 36 36 3 0 20 -12 37 -26 36
-30 39 -56 11 -101 -40 -67 -104 -83 -164 -42 -38 26 -56 56 -56 95 0 69 80
136 128 106z m2669 -107 c29 -29 34 -40 31 -72 -2 -30 -7 -38 -23 -38 -15 0
-21 9 -26 39 -10 61 -60 76 -104 31 -29 -28 -32 -61 -8 -87 26 -28 43 -23 41
13 -4 45 15 46 48 4 l27 -36 -23 -24 c-34 -36 -56 -39 -95 -15 -111 68 -70
218 59 220 30 0 45 -7 73 -35z m-2781 -130 c46 -31 84 -61 84 -68 0 -27 -25
-37 -94 -37 l-69 0 46 -31 c48 -31 59 -55 32 -65 -21 -8 -184 96 -185 118 0
27 38 41 97 35 29 -3 53 -1 53 4 0 5 -18 21 -40 35 -38 25 -48 43 -33 57 12
13 25 7 109 -48z m2970 -166 c19 -39 33 -77 30 -85 -8 -21 -34 -17 -41 6 -9
27 -28 25 -100 -12 -62 -31 -95 -33 -95 -3 0 8 26 28 58 44 88 45 97 53 83 79
-7 13 -9 27 -6 32 15 24 37 5 71 -61z m-3116 -29 c24 0 79 -47 91 -78 14 -36
-6 -97 -40 -121 -78 -56 -202 15 -188 106 9 54 69 109 105 97 8 -2 22 -4 32
-4z m3218 -237 c2 -15 -11 -37 -39 -68 -23 -25 -40 -48 -37 -51 3 -3 27 0 53
7 39 10 49 9 56 -2 16 -25 3 -34 -92 -61 -113 -33 -116 -33 -124 -8 -5 15 6
34 39 72 25 29 44 54 42 56 -2 2 -21 -1 -43 -7 -56 -16 -73 -14 -73 9 0 16 17
25 93 49 105 34 121 34 125 4z m-3299 -19 c96 -29 112 -39 104 -61 -5 -12 -15
-13 -51 -8 -48 7 -62 -2 -62 -41 0 -15 11 -25 41 -37 30 -12 40 -21 37 -34 -5
-23 -42 -21 -139 10 -62 19 -75 27 -77 46 -4 23 -2 23 42 17 45 -7 45 -7 54
26 9 32 7 34 -30 50 -41 18 -41 19 -32 42 8 21 11 21 113 -10z m3359 -231 c3
-18 -3 -23 -33 -29 -41 -7 -50 -20 -37 -55 8 -20 16 -24 48 -24 32 0 40 -4 42
-21 3 -19 -4 -23 -60 -32 -145 -24 -150 -24 -158 -11 -14 22 1 39 42 45 38 7
39 8 36 43 l-3 36 -47 -3 c-45 -3 -48 -2 -48 22 0 27 -4 25 120 45 77 13 94
10 98 -16z m-3412 -14 c13 -14 18 -33 16 -64 -1 -43 -1 -44 34 -51 37 -7 54
-28 37 -45 -10 -10 -192 8 -213 21 -16 10 3 115 25 140 24 27 76 26 101 -1z
m201 -329 c6 -180 46 -376 107 -519 38 -89 81 -174 105 -211 69 -102 91 -132
135 -185 215 -256 544 -441 869 -489 190 -29 436 -17 612 29 104 28 256 94
363 158 57 34 111 68 120 77 9 8 30 25 46 38 52 40 140 126 192 187 204 241
320 530 344 860 5 66 10 121 10 123 1 6 469 1 474 -6 2 -4 0 -59 -5 -122 -34
-425 -192 -800 -473 -1127 -99 -115 -101 -116 -233 -224 -106 -86 -174 -133
-283 -194 -663 -367 -1477 -313 -2082 138 -446 333 -736 853 -776 1392 -4 55
-6 110 -4 123 l3 22 237 -2 237 -3 2 -65z"/>
<path d="M1972 4989 c-165 -28 -347 -129 -469 -262 -86 -93 -233 -309 -233
-342 0 -30 23 -14 133 91 153 145 350 274 419 274 21 0 21 0 2 -21 l-19 -22
34 18 c99 50 178 -56 98 -133 -65 -63 -144 -26 -140 66 l2 46 -24 -30 c-63
-75 -87 -237 -51 -333 9 -24 13 -47 10 -53 -4 -6 -35 -7 -78 -3 -148 13 -339
-29 -458 -101 -63 -39 -153 -116 -169 -146 -11 -20 -9 -20 63 -12 97 10 236 7
323 -7 39 -6 158 -33 265 -59 299 -74 355 -83 500 -77 106 4 139 10 220 37
175 60 331 152 482 285 79 70 135 132 126 141 -9 8 -124 -19 -163 -38 -22 -11
-83 -49 -135 -83 -115 -76 -237 -138 -311 -159 -73 -20 -161 -29 -179 -17 -19
13 -19 13 85 39 49 12 96 29 103 36 12 12 2 14 -68 15 -46 0 -86 3 -89 7 -3 3
12 22 34 42 92 85 125 156 126 271 1 92 -23 161 -76 227 -34 42 -35 44 -14 44
13 0 115 -44 228 -99 248 -119 316 -146 418 -167 150 -31 279 -7 351 67 56 57
96 153 44 106 -65 -59 -201 -76 -303 -38 -30 11 -126 66 -214 121 -278 175
-436 245 -610 270 -83 11 -189 11 -263 -1z"/>
<path d="M540 3731 c0 -51 0 -51 -32 -51 -64 0 -79 -9 -76 -44 3 -29 6 -31 53
-36 l50 -5 5 -50 c5 -48 6 -50 38 -53 21 -2 32 1 33 10 1 7 2 27 4 43 1 17 3
36 4 43 1 8 18 12 51 12 l50 0 0 35 c0 19 -4 36 -10 36 -5 1 -14 3 -20 4 -5 1
-23 3 -39 4 -28 1 -30 4 -33 49 -3 47 -3 47 -40 50 l-38 3 0 -50z"/>
<path d="M3860 3730 c0 -53 3 -51 -90 -63 -10 -2 -15 -13 -15 -32 0 -29 2 -30
50 -35 l50 -5 5 -50 c5 -48 6 -50 37 -53 34 -3 39 4 45 73 3 28 6 30 51 33 46
3 47 4 47 38 0 32 -2 34 -34 34 -54 0 -66 8 -66 45 0 53 -9 65 -46 65 l-34 0
0 -50z"/>
<path d="M790 3085 c-41 -30 -74 -59 -72 -65 7 -29 57 -90 80 -98 61 -20 152
40 152 100 0 37 -49 118 -70 117 -8 0 -49 -25 -90 -54z m121 -26 c9 -24 9 -35
0 -53 -15 -27 -61 -56 -90 -56 -22 0 -61 36 -61 56 0 18 109 94 125 88 7 -3
19 -19 26 -35z"/>
<path d="M953 2929 c-91 -77 -99 -98 -62 -151 26 -36 61 -51 92 -39 12 5 47
32 77 59 39 36 52 53 44 61 -7 8 -25 -2 -63 -34 -66 -56 -98 -66 -122 -37 -25
31 -15 53 47 106 49 43 69 76 45 76 -6 0 -31 -18 -58 -41z"/>
<path d="M3400 2897 c0 -7 18 -30 40 -51 22 -21 40 -42 40 -47 0 -11 8 -12
-77 6 -67 14 -103 12 -103 -4 0 -4 34 -41 75 -81 58 -55 79 -70 88 -61 8 8 -1
24 -38 62 l-50 52 40 -7 c167 -27 175 -19 78 75 -69 68 -93 82 -93 56z"/>
<path d="M1071 2740 c-44 -50 -61 -76 -56 -88 5 -14 14 -8 51 32 25 26 48 45
51 42 3 -3 0 -40 -6 -82 -19 -114 -6 -117 80 -24 64 70 82 100 60 100 -6 0
-30 -21 -55 -47 -24 -26 -47 -45 -50 -42 -3 3 1 38 8 79 24 123 7 130 -83 30z"/>
<path d="M1264 2635 c-26 -18 -54 -74 -54 -108 0 -37 45 -85 92 -99 39 -12 41
-11 64 18 29 35 27 50 -8 72 -29 17 -50 10 -30 -10 7 -7 12 -20 12 -31 0 -29
-58 -19 -83 14 -17 24 -18 31 -7 63 27 83 105 90 145 14 13 -26 29 -28 33 -5
2 10 -11 32 -31 52 -28 28 -43 35 -74 35 -21 0 -48 -7 -59 -15z"/>
<path d="M2731 2459 c-30 -10 -56 -21 -59 -23 -2 -3 10 -48 28 -100 36 -109
36 -109 125 -75 84 31 71 54 -14 24 -40 -14 -42 -14 -57 10 -21 32 -9 47 46
64 38 11 47 20 34 33 -3 4 -26 -1 -51 -9 -43 -15 -47 -15 -60 3 -17 23 -4 38
51 57 42 14 60 38 29 36 -10 0 -42 -9 -72 -20z"/>
<path d="M1771 2341 c-24 -103 -26 -124 -9 -119 7 3 19 28 28 57 8 29 19 52
25 52 5 0 20 -31 33 -70 18 -53 28 -71 42 -71 14 0 22 18 39 85 11 46 21 94
21 105 0 40 -23 15 -37 -40 -7 -30 -15 -56 -18 -58 -10 -11 -25 14 -40 66 -33
112 -56 111 -84 -7z"/>
<path d="M1996 2381 c-12 -19 -25 -196 -16 -205 15 -15 28 4 32 44 3 34 4 35
51 38 l47 3 0 -50 c0 -37 4 -51 14 -51 15 0 20 24 31 143 6 63 5 69 -12 65
-12 -2 -20 -15 -23 -38 -5 -38 -27 -48 -76 -36 -20 5 -24 13 -24 46 0 38 -13
60 -24 41z"/>
<path d="M2303 2373 c-26 -5 -28 -24 -16 -145 l6 -68 56 0 c31 0 66 3 79 6 42
12 22 24 -38 24 -55 0 -60 2 -66 24 -8 35 2 46 41 46 39 0 65 8 65 21 0 5 -24
9 -54 9 -41 0 -55 4 -60 16 -10 26 12 43 62 46 67 4 68 28 0 27 -29 -1 -63 -4
-75 -6z"/>
<path d="M10520 5924 c-14 -2 -56 -9 -95 -15 -136 -21 -211 -39 -325 -77 -273
-92 -442 -179 -704 -362 -47 -33 -156 -118 -241 -189 -112 -94 -405 -388 -405
-406 0 -16 267 -287 365 -371 39 -32 72 -62 75 -65 33 -39 366 -270 470 -326
134 -72 238 -123 251 -123 8 0 19 -4 24 -9 20 -20 279 -101 407 -127 123 -26
151 -28 368 -29 150 0 255 4 290 12 30 7 91 20 135 28 323 64 727 272 1055
543 134 111 470 445 470 468 0 21 -263 287 -400 404 -147 126 -383 300 -406
300 -4 0 -15 7 -24 15 -61 55 -368 195 -555 252 -186 57 -309 75 -530 79 -110
1 -211 1 -225 -2z m668 -340 c73 -18 152 -69 196 -126 45 -59 83 -161 97 -255
11 -78 10 -101 -4 -173 -20 -97 -68 -202 -134 -291 -82 -112 -257 -279 -457
-439 -11 -8 -53 -45 -95 -81 -75 -65 -91 -71 -120 -42 -8 8 -86 73 -174 145
-324 265 -481 444 -542 617 -25 73 -35 183 -24 273 19 156 98 274 226 339 65
33 70 34 187 34 116 0 123 -1 175 -30 55 -30 134 -100 165 -145 l17 -25 20 25
c126 160 283 219 467 174z"/>
<path d="M6610 5880 c8 -5 40 -10 70 -10 30 -1 78 -6 105 -11 28 -6 67 -13 88
-16 20 -3 40 -9 43 -14 3 -5 15 -9 28 -9 24 0 145 -40 213 -71 24 -10 46 -19
49 -19 10 0 118 -53 124 -61 3 -3 16 -10 29 -14 14 -4 29 -11 35 -16 6 -5 53
-37 105 -72 124 -81 343 -277 383 -340 4 -6 10 -8 14 -5 8 9 -46 74 -58 71 -4
-2 -8 2 -8 8 0 14 -75 86 -206 199 -43 37 -102 80 -109 80 -3 0 -21 11 -39 25
-18 14 -38 25 -44 25 -7 0 -12 4 -12 9 0 7 -22 17 -45 20 -3 0 -15 10 -27 21
-12 11 -30 20 -40 20 -10 0 -18 5 -18 10 0 6 -5 10 -11 10 -6 0 -26 7 -45 15
-85 38 -102 44 -144 60 -49 18 -161 51 -225 67 -106 25 -286 38 -255 18z"/>
<path d="M6160 5720 c-58 -11 -123 -24 -145 -30 -22 -6 -53 -15 -70 -19 -150
-41 -378 -154 -517 -258 -135 -100 -317 -284 -393 -398 -33 -50 -62 -92 -65
-95 -19 -19 -113 -211 -140 -285 -38 -106 -76 -237 -85 -295 -28 -183 -31
-485 -5 -610 44 -209 107 -385 190 -533 56 -101 59 -94 -53 -117 l-57 -12 20
-28 c11 -15 20 -33 20 -39 0 -6 5 -11 10 -11 6 0 10 -5 10 -10 0 -19 43 -69
53 -63 6 3 7 2 4 -4 -12 -18 186 -239 294 -328 75 -62 193 -146 204 -145 3 0
15 -9 27 -20 12 -11 28 -20 35 -20 7 0 13 -4 13 -9 0 -5 12 -12 27 -16 15 -3
30 -10 33 -14 6 -9 158 -81 170 -81 5 0 24 -8 43 -19 18 -10 52 -22 75 -26 23
-4 44 -11 48 -16 3 -5 21 -9 40 -9 19 0 34 -4 34 -10 0 -5 10 -10 23 -10 12 0
54 -6 92 -14 94 -19 202 -28 190 -17 -6 5 -39 11 -75 15 -122 10 -336 62 -402
97 -10 5 -25 9 -33 9 -8 0 -15 5 -15 10 0 6 -10 10 -22 10 -13 0 -32 7 -42 15
-11 8 -28 15 -38 15 -10 0 -18 5 -18 10 0 6 -9 10 -20 10 -11 0 -20 5 -20 12
0 6 -3 8 -6 5 -4 -4 -19 1 -33 11 -47 31 -66 42 -98 59 -18 9 -33 20 -33 25 0
4 -6 8 -13 8 -8 0 -22 9 -32 20 -10 11 -22 20 -27 20 -25 0 -183 144 -174 159
4 6 26 11 50 11 24 0 57 5 74 11 30 10 35 8 79 -29 159 -132 415 -256 648
-312 224 -54 518 -62 740 -19 157 30 355 101 495 176 85 46 239 148 251 166
10 14 155 3 174 -13 14 -12 10 -19 -34 -62 -27 -26 -52 -48 -56 -48 -5 0 -81
-55 -95 -70 -3 -3 -22 -14 -43 -25 -21 -11 -46 -27 -55 -36 -9 -8 -32 -22 -49
-29 -18 -8 -33 -19 -33 -23 0 -5 -5 -5 -11 -1 -6 3 -14 2 -18 -3 -9 -14 -119
-63 -141 -63 -11 0 -20 -4 -20 -10 0 -5 -9 -10 -20 -10 -11 0 -20 -4 -20 -9 0
-6 -21 -13 -47 -17 -27 -3 -54 -11 -61 -17 -13 -11 -115 -36 -177 -44 -22 -3
-44 -10 -50 -15 -7 -7 3 -8 30 -4 22 4 59 10 83 13 23 3 42 10 42 14 0 5 15 9
34 9 19 0 37 4 40 9 4 5 25 12 48 16 23 4 49 11 58 15 8 4 26 12 40 18 14 5
60 26 102 46 43 20 82 36 88 36 5 0 10 5 10 10 0 6 5 10 11 10 7 0 40 18 75
40 35 22 66 40 69 40 3 0 47 33 98 72 77 61 124 103 251 224 10 10 36 42 114
138 50 63 102 140 102 151 0 4 11 21 24 38 30 41 126 240 131 272 2 10 10 33
26 73 21 52 27 69 36 109 6 23 6 48 2 55 -6 9 -9 5 -9 -12 0 -14 -16 -70 -36
-125 -20 -55 -41 -115 -47 -132 -6 -18 -14 -33 -19 -33 -4 0 -8 -7 -8 -15 0
-23 -65 -153 -83 -166 -5 -3 -8 -10 -8 -15 1 -11 0 -11 -77 5 -34 8 -65 18
-68 22 -3 5 4 22 16 38 61 87 163 344 195 496 9 44 21 102 27 129 6 27 11 135
11 240 -1 151 -5 216 -22 311 -107 590 -514 1084 -1076 1303 -49 19 -103 38
-120 43 -16 4 -55 14 -85 22 -106 29 -207 40 -405 43 -162 2 -220 -1 -305 -16z
m267 -224 c20 -18 25 -28 17 -36 -11 -12 -44 -4 -44 11 0 5 -11 9 -25 9 -19 0
-26 -7 -33 -32 -13 -51 3 -88 39 -88 19 0 29 5 29 15 0 8 -6 15 -14 15 -15 0
-28 24 -19 34 4 3 21 6 40 6 31 0 33 -2 33 -37 0 -51 -23 -73 -76 -73 -52 0
-74 25 -81 95 -5 39 -2 47 25 75 37 37 71 39 109 6z m241 -9 c15 -12 16 -53 1
-63 -8 -4 -8 -9 0 -17 17 -17 13 -63 -6 -78 -17 -15 -111 -16 -123 -2 -12 14
5 174 19 183 14 8 89 -7 109 -23z m-419 -9 c5 -13 14 -51 20 -86 18 -96 1
-106 -66 -40 -47 46 -61 45 -44 -3 16 -46 14 -59 -9 -59 -13 0 -21 9 -25 28
-4 15 -10 46 -16 69 -13 58 -11 93 4 93 7 0 31 -18 52 -40 21 -22 43 -40 48
-40 5 0 6 22 2 50 -6 42 -4 50 9 50 9 0 20 -10 25 -22z m594 -14 c31 -12 12
-29 -34 -29 -54 0 -61 -24 -11 -39 17 -5 32 -16 32 -24 0 -11 -8 -13 -39 -8
-33 5 -39 3 -44 -14 -4 -16 2 -22 34 -30 24 -7 39 -17 39 -27 0 -13 -8 -14
-47 -8 -58 8 -84 21 -78 38 2 6 12 44 21 82 9 39 18 73 20 76 4 7 76 -5 107
-17z m-804 -30 c13 -9 29 -32 37 -50 33 -78 4 -134 -69 -134 -54 0 -87 40 -87
108 0 40 12 63 45 80 28 16 47 15 74 -4z m913 -65 c7 -32 15 -59 19 -59 4 0
12 20 18 44 12 48 27 64 43 48 11 -11 -25 -139 -48 -170 -19 -26 -38 -1 -53
69 -13 58 -15 60 -27 38 -7 -13 -13 -31 -14 -40 0 -25 -28 -45 -42 -31 -8 8
-5 29 15 79 15 38 27 74 27 80 0 16 23 22 37 11 7 -6 18 -37 25 -69z m-1053
-65 c17 -36 31 -71 31 -79 0 -26 -28 -16 -47 15 -20 34 -25 36 -57 14 -23 -14
-23 -17 -10 -42 19 -37 18 -52 -5 -52 -14 0 -29 21 -55 77 -35 74 -40 109 -13
101 6 -3 18 -17 25 -32 11 -21 18 -25 35 -20 42 13 48 23 31 56 -13 25 -13 32
-3 39 19 12 33 -4 68 -77z m1221 50 c0 -8 -5 -25 -11 -36 -10 -18 -8 -25 11
-40 31 -25 46 -23 60 12 14 33 20 36 38 18 9 -9 2 -30 -31 -90 -23 -43 -47
-78 -54 -78 -21 0 -24 19 -8 51 9 17 15 32 13 34 -9 7 -48 25 -55 25 -5 0 -17
-13 -26 -30 -11 -18 -23 -27 -32 -23 -22 8 -19 16 26 98 38 70 69 96 69 59z
m213 -147 c-1 -20 -10 -51 -18 -68 -9 -17 -15 -33 -13 -35 3 -2 28 13 56 32
46 33 82 40 82 16 0 -11 -147 -112 -164 -112 -26 0 -26 34 -1 113 13 43 27 83
31 88 13 21 29 0 27 -34z m-1827 -48 c3 -6 -6 -23 -21 -39 -43 -44 -13 -70 32
-28 18 17 26 19 35 10 9 -9 6 -18 -14 -39 -42 -45 -19 -71 29 -33 14 11 30 20
34 20 16 0 9 -38 -8 -44 -14 -6 -14 -9 6 -23 15 -10 19 -19 13 -25 -13 -13
-46 -2 -37 12 9 14 -7 12 -29 -5 -17 -13 -21 -12 -38 8 -11 12 -37 41 -59 64
-21 23 -39 47 -39 54 0 12 69 78 82 79 4 0 10 -5 14 -11z m1197 -49 c205 -47
381 -146 537 -300 160 -159 257 -337 311 -575 21 -90 17 -372 -5 -450 -10 -33
-22 -76 -26 -95 -32 -129 -136 -304 -254 -429 l-61 -63 -149 7 c-195 9 -196
10 -145 60 52 50 75 101 88 196 26 191 -42 342 -175 384 -105 33 -217 5 -283
-71 -58 -65 -71 -111 -71 -242 0 -144 18 -200 83 -269 23 -24 27 -34 16 -38
-20 -7 -142 -1 -156 8 -8 5 -13 30 -13 63 l0 54 -99 0 c-55 0 -107 3 -116 6
-12 5 7 30 84 109 82 84 102 111 114 153 27 89 -11 169 -100 213 -39 19 -64
23 -138 23 -104 0 -155 -19 -202 -79 -27 -34 -56 -118 -45 -129 3 -4 45 -6 94
-6 85 0 88 1 88 23 0 33 18 47 62 47 29 0 41 -6 54 -25 29 -45 12 -71 -141
-221 l-145 -142 0 -55 c0 -66 -2 -67 -136 -67 l-92 0 -53 58 c-83 90 -134 164
-185 269 -53 108 -55 114 -78 193 -27 91 -36 168 -36 308 0 232 53 412 181
607 177 271 498 468 814 499 87 9 297 -5 378 -24z m909 -54 c11 -17 9 -46 -3
-46 -6 0 -8 -9 -4 -20 9 -28 -29 -27 -49 1 -9 13 -21 19 -30 16 -22 -9 -20
-30 4 -52 11 -10 20 -22 20 -27 0 -17 -39 -7 -54 13 -9 13 -21 19 -30 16 -22
-9 -20 -30 4 -52 22 -20 27 -45 8 -45 -18 0 -78 62 -78 79 1 9 30 42 65 74
l65 58 26 -26 c14 -14 29 -23 33 -20 3 4 -2 12 -12 19 -25 19 -22 39 6 30 12
-4 25 -12 29 -18z m-2176 -62 c35 -31 64 -62 64 -70 0 -20 -30 -17 -55 6 l-21
20 -24 -25 -24 -25 28 -29 c26 -27 28 -51 6 -51 -16 0 -140 111 -140 126 0 19
34 18 50 -1 17 -20 29 -19 52 7 18 21 18 22 -8 49 -25 26 -26 49 -2 49 6 0 39
-25 74 -56z m2221 -69 c3 -9 -4 -40 -15 -70 -12 -30 -18 -55 -14 -55 4 0 25
12 46 26 26 18 41 23 48 16 15 -15 6 -25 -68 -77 -59 -43 -94 -52 -94 -26 0 6
9 34 20 62 12 28 19 53 17 55 -2 2 -20 -8 -40 -21 -43 -29 -57 -31 -57 -7 1
17 114 109 138 111 7 1 15 -6 19 -14z m-2393 -106 c29 -23 33 -54 11 -86 -15
-21 -14 -23 10 -39 28 -19 32 -32 10 -40 -22 -9 -155 73 -155 94 0 23 35 75
57 84 29 11 39 9 67 -13z m2540 -118 c3 -5 -13 -32 -35 -60 l-41 -51 66 0 c36
0 66 -2 66 -4 0 -2 2 -11 5 -19 4 -10 -18 -25 -80 -52 -72 -32 -88 -36 -95
-24 -7 10 0 19 28 34 l37 19 -35 6 c-45 7 -51 33 -14 71 30 31 24 37 -16 14
-33 -19 -60 -19 -60 0 0 8 21 23 48 34 26 12 54 25 62 30 19 13 57 14 64 2z
m-2595 -57 c58 -6 71 -10 69 -23 -2 -10 -15 -17 -35 -19 -38 -4 -54 -43 -29
-71 16 -17 14 -31 -15 -106 -4 -11 -10 -28 -13 -37 -7 -24 -29 -23 -112 6 -51
18 -69 29 -69 43 0 21 3 21 78 -1 65 -20 87 -16 87 15 0 12 8 23 19 26 15 4 6
17 -51 72 -65 62 -70 69 -59 90 9 17 19 21 35 17 13 -3 55 -9 95 -12z m2738
-166 c4 -7 16 -18 27 -23 18 -10 24 -29 9 -31 -5 0 -16 -4 -26 -8 -10 -5 -23
-3 -31 3 -8 7 -16 8 -18 3 -4 -11 -139 -112 -150 -112 -18 0 -21 33 -4 46 27
19 18 68 -14 72 -14 2 -29 8 -35 13 -21 20 21 29 113 23 78 -5 93 -3 98 10 7
19 20 21 31 4z m-2839 -184 c32 -5 42 -11 42 -25 0 -15 -8 -19 -39 -19 -34 0
-39 -3 -44 -27 -7 -36 -2 -43 33 -43 28 0 48 -26 32 -42 -9 -9 -171 17 -185
31 -17 17 5 32 42 29 35 -3 36 -2 36 32 0 31 -3 35 -30 40 -19 3 -31 12 -33
24 -4 17 1 18 50 13 29 -4 72 -9 96 -13z m2862 -194 c0 -16 -7 -20 -35 -20
-33 0 -35 -2 -35 -35 0 -33 2 -35 34 -35 35 0 55 -15 40 -30 -5 -4 -49 -10
-97 -13 -74 -5 -89 -4 -94 9 -7 20 13 34 50 34 26 0 28 3 25 33 -3 29 -6 32
-40 35 -35 3 -49 18 -31 35 3 4 46 7 95 7 81 0 88 -2 88 -20z m-2842 -11 c2
-11 -18 -30 -57 -55 l-61 -39 58 -5 c42 -4 57 -9 57 -20 0 -12 -17 -15 -90
-15 -82 0 -90 2 -93 20 -1 15 11 28 47 49 28 16 48 33 45 38 -3 4 -25 8 -50 8
-38 0 -44 3 -44 20 0 20 5 21 92 18 76 -2 93 -6 96 -19z m1 -163 c9 -11 6 -18
-17 -35 -23 -16 -28 -26 -24 -46 3 -16 11 -25 23 -25 10 0 23 -9 29 -20 9 -17
8 -20 -14 -20 -14 0 -62 9 -107 20 -78 18 -83 18 -95 2 -12 -16 -13 -16 -19 0
-8 21 1 38 21 38 8 0 14 4 14 9 0 6 26 22 58 36 31 14 68 32 82 39 33 18 36
18 49 2z m21 -185 c0 -13 -9 -21 -30 -26 -38 -8 -43 -17 -30 -50 9 -25 14 -27
46 -22 26 4 37 2 41 -9 8 -21 4 -23 -87 -45 -56 -14 -86 -17 -93 -10 -15 15
10 41 39 41 25 0 28 9 18 48 -6 19 -13 23 -38 21 -35 -3 -59 7 -53 24 2 6 37
19 78 28 99 23 109 23 109 0z m2745 -50 c25 -5 31 -12 33 -38 4 -36 -24 -97
-39 -87 -6 3 -8 22 -4 44 5 29 3 39 -9 43 -17 7 -36 -19 -36 -47 0 -10 -9 -16
-21 -16 -17 0 -20 4 -15 20 3 11 9 29 12 40 5 16 2 20 -18 20 -18 0 -26 -7
-33 -32 -13 -43 -41 -45 -37 -4 2 17 9 44 17 62 l13 32 53 -15 c30 -8 68 -18
84 -22z m-1111 -14 c18 -25 21 -42 21 -140 0 -122 -12 -167 -49 -187 -18 -9
-29 -9 -45 -1 -40 22 -51 62 -51 182 0 105 2 114 26 146 32 42 67 42 98 0z
m1041 -126 c40 -23 60 -60 51 -95 -7 -29 -60 -68 -82 -59 -24 9 -15 34 16 44
57 20 23 81 -47 83 -33 1 -38 -2 -41 -23 -2 -13 1 -28 6 -33 13 -13 4 -38 -14
-38 -36 0 -44 74 -13 114 25 31 77 34 124 7z m-685 -400 c269 -24 446 -43 555
-60 283 -45 319 -53 323 -75 5 -25 -27 -58 -49 -51 -85 27 -489 80 -814 106
-283 23 -1001 26 -1345 5 -182 -11 -666 -67 -740 -86 -31 -8 -67 -14 -138 -24
-29 -4 -54 20 -50 47 4 27 34 34 308 77 146 22 362 44 585 59 88 6 171 13 185
15 49 8 1076 -4 1180 -13z m-929 -138 c1 -10 1 -23 0 -28 0 -6 9 -16 20 -23
17 -11 25 -11 44 2 20 13 24 13 43 -4 17 -16 19 -25 12 -49 -5 -17 -11 -35
-15 -41 -10 -16 -65 -12 -71 5 -5 12 -9 11 -23 -7 -16 -19 -22 -20 -59 -11
-26 7 -44 7 -50 1 -6 -6 -19 -7 -31 -3 -26 8 -28 45 -4 81 12 19 23 24 47 22
24 -2 31 1 34 17 4 22 30 55 44 55 4 0 9 -8 9 -17z m276 -3 c6 -22 18 -26 28
-10 3 6 15 10 26 10 15 0 20 -6 19 -22 -1 -13 -2 -32 -1 -43 1 -18 2 -19 12
-2 5 9 18 17 27 18 10 0 12 3 5 6 -22 8 -15 43 7 43 19 0 20 -5 16 -47 -2 -27
-9 -60 -14 -74 -10 -24 -15 -26 -70 -27 -48 -1 -62 3 -67 16 -6 16 -7 16 -16
0 -7 -13 -22 -18 -50 -18 -69 0 -65 40 12 123 49 52 58 56 66 27z m458 -5 c0
-11 -4 -26 -9 -33 -5 -7 -6 -15 -2 -19 3 -4 12 2 20 12 7 10 20 16 28 12 19
-7 20 -57 2 -64 -7 -3 -16 -20 -20 -39 l-6 -34 -71 2 c-60 1 -71 4 -75 22 -5
19 -6 19 -13 -2 -10 -25 -27 -29 -35 -7 -5 11 -9 12 -25 2 -15 -9 -21 -9 -27
0 -5 8 -13 9 -22 3 -8 -6 -18 -10 -21 -10 -11 0 -18 40 -8 46 5 3 9 18 9 35
l0 29 76 0 77 0 -7 -31 -6 -30 24 28 c13 15 25 36 27 46 2 10 9 18 14 19 6 0
16 9 23 20 17 24 47 19 47 -7z m-1438 -14 c3 -13 11 -17 24 -14 15 4 22 0 26
-16 5 -21 23 -25 86 -21 25 1 27 -1 27 -35 0 -43 -15 -75 -35 -75 -10 0 -15
10 -15 28 l-1 27 -13 -31 c-11 -24 -20 -31 -40 -31 -15 0 -33 -9 -40 -19 -13
-17 -15 -17 -40 6 -24 24 -37 80 -18 80 8 0 32 43 32 55 0 10 -37 4 -48 -7 -7
-7 -12 -27 -12 -44 0 -18 -4 -36 -10 -39 -5 -3 -10 -15 -10 -26 0 -15 -6 -20
-22 -17 -24 3 -27 18 -13 68 5 19 4 22 -4 10 -12 -17 -37 -7 -55 23 -8 13 -4
21 19 41 24 21 41 26 83 26 39 0 52 4 52 15 0 22 21 19 27 -4z m350 -11 c4
-17 14 -20 57 -21 28 -1 64 0 80 1 l29 2 -7 -49 c-7 -54 -34 -85 -50 -59 -9
13 -11 12 -22 -2 -10 -13 -15 -14 -27 -4 -9 8 -18 9 -21 4 -3 -5 -47 -9 -98
-8 l-93 1 4 45 c2 25 6 47 10 50 4 3 10 13 14 23 9 24 37 22 37 -3 0 -12 7
-20 16 -20 9 0 14 6 11 13 -6 15 21 47 40 47 8 0 17 -9 20 -20z m1331 -36 c0
-19 3 -38 6 -41 3 -4 6 1 6 10 0 13 9 17 38 17 21 0 43 -5 50 -12 8 -8 15 -9
22 -2 8 8 25 6 56 -4 l45 -15 -36 -34 c-35 -33 -36 -36 -20 -53 14 -15 14 -21
3 -39 -7 -12 -18 -19 -25 -17 -6 3 -13 0 -16 -7 -5 -15 -73 26 -69 43 5 24
-29 36 -94 34 -49 -2 -66 2 -73 13 -6 11 -10 12 -15 4 -10 -16 -41 -14 -57 5
-10 13 -10 17 1 24 8 5 14 21 15 37 0 24 4 28 32 31 23 2 32 -1 35 -14 2 -13
10 -9 38 20 44 45 58 45 58 0z"/>
<path d="M6170 4900 c-8 -5 -32 -10 -52 -10 -20 0 -40 -5 -43 -10 -4 -6 -15
-8 -25 -5 -10 3 -21 1 -25 -5 -3 -5 -14 -10 -24 -10 -21 0 -71 -22 -71 -32 0
-5 -8 -8 -17 -8 -18 0 -92 -44 -125 -74 -10 -9 -22 -16 -26 -16 -4 0 -30 -22
-57 -50 l-49 -50 242 0 242 0 47 34 c27 18 63 39 81 47 17 8 32 17 32 22 0 4
6 7 13 6 6 -1 22 -1 35 0 19 1 22 5 17 21 -4 14 -2 20 9 20 10 0 13 -6 9 -17
-6 -14 0 -15 48 -9 138 20 224 22 279 8 30 -8 79 -12 108 -10 28 3 52 1 52 -3
0 -11 83 -16 113 -6 34 11 36 31 2 24 -14 -2 -23 -2 -21 1 7 7 -64 42 -85 42
-10 0 -19 5 -21 11 -4 12 -96 17 -120 5 -12 -5 -18 -4 -18 3 0 6 9 11 20 11
11 0 20 5 20 10 0 6 -15 10 -33 10 -18 0 -37 4 -43 10 -5 5 -46 12 -92 16 -45
4 -85 11 -88 15 -7 12 -316 11 -334 -1z"/>
<path d="M6715 4185 c-41 -31 -102 -65 -120 -65 -8 0 -15 -4 -15 -9 0 -5 -10
-9 -22 -9 -13 0 -70 -5 -128 -11 -113 -11 -310 -7 -375 9 -22 5 -82 12 -132
16 -51 4 -93 11 -93 15 0 5 -13 9 -29 9 -17 0 -33 5 -36 10 -3 6 -18 10 -33 9
l-27 -1 25 -7 c14 -5 34 -13 45 -19 40 -21 93 -42 108 -42 9 0 19 -4 22 -10 3
-5 15 -10 26 -10 10 0 19 -4 19 -10 0 -5 8 -10 18 -10 10 0 22 -3 26 -7 13
-14 77 -31 96 -26 11 3 20 0 20 -6 0 -6 9 -11 19 -11 11 0 23 -5 27 -11 4 -7
22 -9 47 -6 25 3 35 2 27 -3 -11 -7 -8 -10 11 -14 109 -23 285 -38 374 -32 44
3 97 5 118 5 23 0 40 6 43 15 4 10 16 12 45 9 25 -4 39 -2 39 6 0 6 11 11 25
11 14 0 25 4 25 10 0 5 7 7 15 4 10 -4 18 3 25 20 5 14 12 26 15 26 4 0 3 -4
0 -10 -3 -5 2 -10 11 -10 18 0 116 58 122 72 2 5 10 8 17 8 7 0 26 15 43 34
17 19 32 33 34 31 1 -2 11 8 21 21 l18 24 -243 0 c-240 -1 -243 -1 -273 -25z"/>
<path d="M4560 4017 c0 -112 4 -207 9 -213 5 -5 11 -29 14 -54 7 -60 23 -146
37 -195 20 -76 55 -180 62 -185 3 -3 9 -22 13 -43 4 -20 11 -37 16 -37 5 0 9
-11 9 -25 0 -14 5 -25 10 -25 6 0 10 -4 10 -10 0 -13 47 -110 65 -134 8 -11
17 -17 21 -14 5 6 -14 47 -27 58 -4 3 -9 15 -13 28 -4 12 -12 22 -17 22 -5 0
-9 8 -9 18 0 10 -11 42 -25 70 -14 29 -25 58 -25 65 0 7 -4 17 -9 22 -8 9 -33
80 -61 170 -10 34 -28 121 -42 210 -6 33 -12 153 -15 268 -5 273 -23 277 -23
4z"/>
<path d="M0 520 l0 -520 6400 0 6400 0 0 520 0 520 -6400 0 -6400 0 0 -520z
m1315 249 c126 -23 210 -118 222 -249 17 -186 -117 -331 -294 -318 -154 11
-253 119 -255 276 -1 167 94 276 263 301 3 1 32 -4 64 -10z m675 -11 c14 -5
44 -20 68 -34 l43 -25 -23 -28 c-16 -20 -27 -26 -35 -19 -7 5 -18 6 -24 2 -7
-4 -9 -3 -6 3 10 15 -84 53 -130 53 -121 -1 -214 -121 -197 -257 14 -112 91
-183 200 -183 95 0 164 54 184 146 l8 34 -84 0 -84 0 0 33 0 32 120 -3 120 -3
0 -38 c0 -191 -181 -317 -364 -255 -176 60 -233 322 -103 470 69 80 203 111
307 72z m621 -10 c98 -41 154 -135 153 -258 0 -124 -63 -225 -166 -270 -63
-27 -171 -25 -231 4 -43 21 -102 77 -121 115 -25 48 -39 131 -32 184 27 199
211 304 397 225z m1794 21 c139 -26 220 -129 219 -279 -1 -163 -101 -276 -255
-288 -77 -5 -126 8 -187 51 -51 37 -79 79 -98 150 -17 65 -17 99 -1 165 31
117 120 191 258 211 3 1 32 -4 64 -10z m1230 0 c62 -11 93 -25 135 -58 l25
-20 -23 -24 -24 -25 -51 31 c-43 28 -59 32 -118 32 -59 0 -73 -4 -110 -30 -23
-17 -53 -50 -67 -75 -21 -40 -23 -55 -20 -127 4 -69 9 -88 32 -122 71 -101
247 -109 314 -14 23 34 44 92 36 104 -3 5 -41 9 -85 9 l-79 0 0 30 0 30 121 0
122 0 -5 -64 c-13 -155 -123 -253 -273 -244 -149 10 -240 98 -262 253 -18 137
73 275 205 311 60 16 57 16 127 3z m-4925 -249 l0 -250 115 0 115 0 0 -30 0
-30 -150 0 -150 0 0 280 0 280 35 0 35 0 0 -250z m2569 234 c60 -17 106 -60
115 -105 27 -138 -38 -220 -186 -235 l-68 -7 0 -98 0 -99 -35 0 -35 0 0 280 0
280 78 0 c43 0 102 -7 131 -16z m289 -111 l3 -123 164 0 165 0 0 125 0 125 35
0 35 0 0 -280 0 -280 -35 0 -35 0 0 120 c0 66 -3 120 -7 120 -5 0 -79 1 -166
3 l-157 2 0 -122 0 -123 -37 0 -38 0 3 281 3 280 32 -3 32 -3 3 -122z m1303
30 c40 -54 100 -134 133 -178 33 -44 75 -102 93 -130 l33 -50 0 228 0 227 35
0 35 0 0 -280 0 -280 -38 0 c-36 0 -39 3 -137 136 -55 75 -127 174 -160 220
l-60 83 -3 -219 -2 -220 -35 0 -35 0 0 280 0 280 35 0 c32 0 39 -7 106 -97z
m1339 -30 l0 -126 21 19 c12 10 62 67 112 127 86 102 92 107 128 107 46 0 48
-8 13 -41 -15 -13 -66 -73 -115 -133 l-89 -108 37 -42 c21 -23 58 -66 83 -96
25 -30 62 -73 84 -97 l39 -43 -49 0 c-48 0 -50 2 -102 66 -29 35 -57 62 -62
59 -5 -3 -8 0 -5 7 2 7 -18 37 -45 67 l-50 55 0 -127 0 -127 -35 0 -35 0 0
280 0 280 35 0 35 0 0 -127z m447 7 c1 -63 2 -118 3 -122 0 -5 74 -8 165 -8
l165 0 0 125 0 125 35 0 35 0 0 -280 0 -280 -35 0 -34 0 -3 120 -3 120 -157 2
c-87 1 -161 -1 -164 -5 -4 -3 -6 -58 -5 -122 l2 -115 -38 0 -38 0 3 281 3 280
32 -3 32 -3 2 -115z m773 58 c12 -35 58 -158 101 -274 43 -117 79 -216 79
-221 0 -5 -18 -7 -39 -5 -32 3 -40 9 -45 28 -4 14 -16 49 -27 79 l-20 55 -109
0 -108 0 -28 -80 -27 -80 -39 0 c-21 0 -38 2 -38 4 0 3 154 412 199 529 9 22
17 27 44 27 33 0 35 -3 57 -62z m341 34 c8 -15 52 -98 99 -185 65 -120 87
-154 96 -144 6 6 51 90 100 184 88 170 90 173 122 173 l32 0 0 -280 0 -280
-35 0 -35 0 -2 204 -3 204 -76 -147 -75 -146 -39 0 -38 0 -78 145 -79 145 0
-202 0 -203 -35 0 -35 0 0 280 0 280 34 0 c27 0 36 -6 47 -28z m1039 18 c3 -3
27 -16 54 -30 116 -58 168 -215 116 -353 -25 -65 -69 -113 -135 -143 -43 -21
-66 -24 -162 -24 l-113 0 0 124 0 125 -32 3 c-29 3 -33 6 -33 33 0 27 4 30 33
33 l32 3 0 121 0 120 118 -3 c64 -2 119 -6 122 -9z m608 -22 l-3 -33 -117 -3
-118 -3 0 -89 0 -90 100 0 100 0 0 -30 0 -30 -99 0 -100 0 -3 -85 c-2 -47 -1
-90 0 -95 2 -6 54 -10 123 -10 l120 0 -3 -31 -3 -30 -152 0 c-84 0 -153 2
-153 5 0 3 0 130 0 281 l0 275 156 0 155 0 -3 -32z m350 3 c52 -27 81 -82 82
-154 0 -104 -65 -162 -197 -174 l-63 -6 0 -98 0 -99 -35 0 -35 0 0 281 0 282
103 -5 c79 -4 112 -10 145 -27z m463 7 c7 -13 51 -75 98 -138 47 -63 96 -131
110 -150 13 -19 26 -37 30 -40 4 -3 21 -27 39 -55 l32 -50 0 228 0 227 35 0
35 0 0 -280 0 -280 -38 0 c-36 0 -40 4 -122 116 -47 64 -120 163 -162 222
l-78 105 0 -221 0 -222 -35 0 -35 0 0 280 0 280 40 0 c31 0 42 -5 51 -22z
m589 -103 l0 -125 165 0 165 0 0 125 0 125 35 0 35 0 0 -280 0 -280 -35 0 -35
0 0 120 c0 66 -3 120 -7 120 -5 0 -78 1 -163 2 l-155 1 -3 -122 -3 -121 -34 0
-35 0 0 280 0 280 35 0 35 0 0 -125z m764 90 c8 -19 51 -133 95 -252 44 -120
84 -230 90 -246 10 -27 10 -27 -29 -27 l-39 0 -28 80 -28 80 -109 -2 -109 -3
-29 -80 -29 -81 -35 4 c-18 2 -34 7 -34 11 0 3 46 129 102 279 l103 272 32 0
c28 0 35 -5 47 -35z m636 0 l0 -35 -90 0 -90 0 0 -245 0 -245 -35 0 -35 0 0
245 0 245 -90 0 -90 0 0 35 0 35 215 0 215 0 0 -35z"/>
<path d="M1172 684 c-78 -39 -107 -93 -107 -199 0 -94 22 -144 82 -185 31 -21
48 -25 113 -25 64 0 82 4 112 24 68 47 106 139 92 228 -9 63 -59 133 -114 161
-59 29 -114 28 -178 -4z"/>
<path d="M2425 697 c-53 -22 -71 -35 -99 -75 -50 -73 -50 -200 1 -274 64 -94
221 -107 301 -25 95 98 83 275 -24 350 -47 33 -131 44 -179 24z"/>
<path d="M4295 704 c-40 -10 -99 -60 -123 -104 -21 -40 -23 -55 -20 -127 4
-68 9 -88 32 -123 64 -98 224 -111 304 -26 45 48 62 94 62 169 0 120 -72 204
-181 212 -29 2 -63 1 -74 -1z"/>
<path d="M3140 589 l0 -111 66 4 c60 4 69 7 96 37 27 30 30 39 25 80 -4 34
-12 52 -36 73 -27 24 -40 28 -91 28 l-60 0 0 -111z"/>
<path d="M7331 562 c-19 -53 -36 -103 -39 -109 -3 -10 17 -13 78 -13 62 0 81
3 77 13 -2 6 -19 56 -38 109 -19 54 -36 98 -39 98 -3 0 -20 -44 -39 -98z"/>
<path d="M8640 615 l0 -84 68 -3 67 -3 0 -30 0 -30 -67 -3 -68 -3 0 -96 0 -96
80 5 c65 4 86 9 118 31 133 92 112 320 -35 383 -18 8 -62 14 -98 14 l-65 0 0
-85z"/>
<path d="M9590 590 l0 -110 50 0 c109 0 162 64 130 157 -15 41 -57 63 -124 63
l-56 0 0 -110z"/>
<path d="M11530 667 c0 -3 -18 -56 -39 -117 l-40 -110 84 0 84 0 -40 112 c-37
104 -49 132 -49 115z"/>
</g>
</svg>
