<?xml version="1.0" standalone="no"?>
<!DOCTYPE svg PUBLIC "-//W3C//DTD SVG 20010904//EN"
 "http://www.w3.org/TR/2001/REC-SVG-20010904/DTD/svg10.dtd">
<svg version="1.0" xmlns="http://www.w3.org/2000/svg"
 width="500.000000pt" height="500.000000pt" viewBox="0 0 500.000000 500.000000"
 preserveAspectRatio="xMidYMid meet">

<g transform="translate(0.000000,500.000000) scale(0.100000,-0.100000)"
fill="#000000" stroke="none">
<path d="M0 2500 l0 -2500 2500 0 2500 0 0 2500 0 2500 -2500 0 -2500 0 0
-2500z m2812 1790 c201 -34 455 -130 633 -240 222 -136 439 -349 580 -568 63
-98 157 -296 195 -411 54 -160 80 -308 87 -491 12 -331 -43 -593 -188 -885
-178 -359 -454 -636 -814 -814 -291 -145 -556 -200 -890 -187 -261 10 -466 61
-710 180 -509 246 -863 701 -987 1267 -20 93 -22 132 -23 364 0 251 1 264 28
379 59 246 137 428 268 624 142 214 288 359 501 502 197 131 388 212 619 264
153 33 146 33 381 35 164 1 229 -3 320 -19z"/>
<path d="M2262 4119 c-532 -81 -1001 -425 -1232 -904 -62 -129 -92 -213 -126
-360 -27 -114 -29 -132 -28 -350 0 -200 3 -243 22 -331 135 -620 597 -1102
1202 -1254 260 -66 549 -64 811 4 441 115 821 419 1033 826 94 181 144 341
171 547 64 487 -96 974 -439 1331 -230 240 -521 402 -847 473 -84 18 -142 23
-304 25 -110 1 -228 -2 -263 -7z m562 -49 c724 -157 1240 -768 1273 -1505 15
-337 -78 -662 -275 -960 -90 -136 -291 -337 -427 -427 -298 -197 -622 -290
-960 -275 -862 39 -1535 738 -1536 1597 0 161 10 246 47 394 130 523 528 954
1042 1126 262 88 575 106 836 50z"/>
<path d="M2838 3653 c81 -39 147 -105 184 -181 30 -61 33 -77 36 -182 3 -99 1
-123 -17 -171 -48 -126 -122 -186 -217 -176 -28 3 -69 14 -90 25 -48 25 -131
110 -212 217 -33 44 -77 97 -98 117 -72 69 -186 102 -272 78 l-44 -11 49 -31
c148 -92 306 -309 373 -508 45 -139 61 -346 40 -519 -6 -46 -10 -85 -8 -86 5
-5 174 94 258 151 100 66 247 212 305 302 104 162 149 303 148 462 -2 226
-105 410 -276 491 -33 15 -81 31 -106 34 -25 3 -59 8 -76 10 -24 3 -19 -1 23
-22z"/>
<path d="M2035 3656 c-94 -31 -178 -91 -228 -164 -26 -36 -28 -47 -28 -133 0
-151 48 -271 128 -320 19 -12 36 -20 37 -18 2 2 -3 33 -10 69 -36 166 27 315
163 382 105 51 266 17 351 -76 l37 -41 35 39 c40 45 135 93 202 102 126 17
256 -66 305 -195 l14 -36 -6 51 c-13 123 -61 216 -139 273 -54 38 -144 71
-195 71 -45 0 -126 -37 -173 -79 -20 -17 -39 -31 -43 -31 -4 0 -23 14 -43 31
-20 18 -61 44 -92 58 -47 22 -71 26 -165 28 -71 2 -124 -2 -150 -11z"/>
<path d="M1726 3330 c-12 -36 -20 -96 -23 -171 -4 -97 -1 -130 17 -200 60
-233 216 -439 450 -594 92 -61 290 -175 303 -175 4 0 7 16 7 36 0 46 -31 77
-135 134 -205 111 -299 215 -312 344 -4 45 -2 54 21 75 27 25 27 25 168 5 37
-5 54 -3 75 11 l27 18 -43 39 c-59 52 -149 94 -254 118 -110 25 -135 38 -186
96 -52 59 -82 138 -90 239 l-7 80 -18 -55z"/>
<path d="M2739 3287 c-43 -29 -59 -60 -59 -120 0 -40 5 -53 33 -84 29 -31 41
-37 88 -40 66 -5 107 17 132 70 22 45 21 84 -1 126 -37 68 -129 91 -193 48z"/>
<path d="M2177 2636 c35 -29 101 -63 172 -87 65 -23 71 -23 71 -5 0 25 -49 54
-108 67 -31 6 -79 20 -107 30 -27 10 -51 19 -53 19 -2 0 9 -11 25 -24z"/>
<path d="M2180 2539 c73 -73 165 -131 259 -164 43 -15 47 -12 31 29 -11 31
-56 60 -125 82 -62 20 -156 67 -204 101 -20 14 -2 -8 39 -48z"/>
<path d="M1230 2048 c0 -7 21 -75 46 -150 l46 -138 42 0 42 0 29 90 c16 50 31
90 35 90 3 0 18 -40 33 -90 l27 -90 43 0 43 0 44 138 c24 75 46 143 48 150 3
10 -5 13 -33 10 l-38 -3 -33 -95 c-36 -107 -33 -108 -73 28 l-22 72 -38 0 -37
0 -29 -91 c-16 -50 -32 -92 -36 -94 -3 -3 -19 38 -34 90 l-28 95 -39 0 c-24 0
-38 -5 -38 -12z"/>
<path d="M1788 1910 l-66 -150 40 0 c35 0 41 4 51 30 11 29 13 30 80 30 67 0
69 -1 80 -30 10 -26 16 -30 49 -30 21 0 38 3 38 7 0 4 -28 72 -62 150 l-63
143 -40 0 -40 0 -67 -150z m141 -17 c1 -9 -13 -13 -39 -13 -44 0 -43 -6 -9 78
l11 27 18 -40 c10 -22 19 -46 19 -52z"/>
<path d="M2100 1910 l0 -150 40 0 40 0 0 40 c0 36 2 40 25 40 18 0 33 -11 53
-40 24 -35 31 -39 70 -40 l43 0 -31 45 -31 46 25 30 c35 41 36 106 4 137 -35
32 -72 42 -159 42 l-79 0 0 -150z m161 80 c12 -7 19 -21 19 -40 0 -34 -23 -50
-69 -50 -30 0 -31 1 -31 50 0 49 1 50 31 50 17 0 39 -5 50 -10z"/>
<path d="M2420 1909 l0 -152 99 5 c78 4 106 9 134 27 64 40 87 134 47 199 -31
50 -88 72 -192 72 l-88 0 0 -151z m173 79 c52 -27 63 -88 24 -133 -18 -21 -32
-27 -72 -28 l-50 -2 -3 74 c-2 41 -1 80 2 88 7 16 69 17 99 1z"/>
<path d="M2770 1910 l0 -150 40 0 40 0 0 150 0 150 -40 0 -40 0 0 -150z"/>
<path d="M2920 1910 l0 -150 120 0 120 0 0 30 0 30 -80 0 -80 0 0 30 0 30 65
0 65 0 0 30 0 30 -65 0 -65 0 0 30 0 30 75 0 75 0 0 30 0 30 -115 0 -115 0 0
-150z"/>
<path d="M3210 1910 l0 -150 40 0 40 0 0 40 c0 37 2 40 28 40 20 -1 34 -11 54
-40 25 -36 32 -40 68 -40 45 0 45 1 2 58 l-25 32 26 26 c34 33 42 73 24 116
-21 50 -66 68 -171 68 l-86 0 0 -150z m168 74 c12 -8 22 -22 22 -30 0 -26 -38
-54 -75 -54 l-35 0 0 50 c0 50 0 50 33 50 18 0 43 -7 55 -16z"/>
<path d="M3530 1910 l0 -150 120 0 120 0 0 30 0 30 -80 0 -80 0 0 30 0 30 65
0 65 0 0 30 0 30 -65 0 -65 0 0 30 0 30 75 0 75 0 0 30 0 30 -115 0 -115 0 0
-150z"/>
<path d="M1497 1653 c-4 -3 -7 -24 -7 -45 0 -36 2 -38 30 -38 31 0 34 5 30 50
-3 33 -34 53 -53 33z m41 -21 c2 -7 -3 -12 -12 -12 -9 0 -16 7 -16 16 0 17 22
14 28 -4z m5 -37 c1 -5 -6 -11 -15 -13 -11 -2 -18 3 -18 13 0 17 30 18 33 0z"/>
<path d="M1688 1649 c-22 -12 -23 -52 -3 -69 8 -7 25 -10 40 -6 20 5 25 13 25
36 0 19 -7 33 -19 40 -23 12 -22 12 -43 -1z m50 -38 c-2 -20 -8 -26 -28 -26
-30 0 -40 33 -15 51 25 19 47 6 43 -25z"/>
<path d="M1888 1649 c-22 -12 -23 -52 -3 -69 8 -7 25 -10 40 -6 20 5 25 13 25
36 0 19 -7 33 -19 40 -23 12 -22 12 -43 -1z m50 -38 c-2 -20 -8 -26 -28 -26
-30 0 -40 33 -15 51 25 19 47 6 43 -25z"/>
<path d="M2586 1644 c-34 -34 -8 -82 39 -70 33 8 35 47 3 45 -18 -1 -19 -2 -5
-6 24 -6 16 -27 -10 -31 -15 -2 -23 4 -28 19 -10 30 19 53 49 38 20 -10 20
-10 2 5 -25 20 -31 20 -50 0z"/>
<path d="M2918 1649 c-11 -6 -18 -22 -18 -39 0 -23 5 -31 26 -36 18 -5 31 -1
42 11 16 16 16 16 -4 5 -29 -17 -54 -6 -54 24 0 27 26 42 46 25 9 -7 14 -8 14
-1 0 5 -7 13 -16 16 -19 7 -15 8 -36 -5z"/>
<path d="M3105 1621 c-10 -23 -15 -44 -12 -48 4 -3 7 -1 7 5 0 16 47 15 54 0
3 -7 3 -2 0 12 -4 14 -12 35 -18 48 -12 23 -13 23 -31 -17z m24 -20 c-15 -5
-22 6 -14 19 6 9 10 9 16 -1 5 -8 4 -15 -2 -18z"/>
<path d="M3281 1613 c1 -27 3 -40 6 -30 5 21 22 22 29 2 4 -8 11 -15 16 -15 6
0 4 7 -3 17 -11 13 -11 17 -1 20 18 7 14 31 -7 43 -34 18 -41 12 -40 -37z m47
15 c-7 -19 -38 -22 -38 -4 0 10 9 16 21 16 12 0 19 -5 17 -12z"/>
<path d="M3460 1615 c0 -43 1 -45 28 -44 23 2 24 2 5 6 -27 5 -31 30 -5 36 16
4 16 5 0 6 -10 0 -18 7 -18 15 0 8 8 17 18 19 13 4 11 5 -5 6 -21 1 -23 -4
-23 -44z"/>
<path d="M2073 1610 c0 -25 2 -35 4 -22 5 27 29 29 38 2 3 -11 11 -20 17 -20
6 0 6 6 -2 15 -7 9 -10 26 -6 42 5 23 4 25 -4 11 -6 -10 -17 -18 -25 -18 -7 0
-16 8 -18 18 -3 9 -5 -3 -4 -28z"/>
<path d="M2253 1610 c0 -25 2 -35 4 -22 2 12 2 32 0 45 -2 12 -4 2 -4 -23z"/>
<path d="M2380 1610 c0 -22 5 -40 10 -40 6 0 10 12 10 28 l0 27 25 -30 24 -30
-1 45 c0 38 -1 40 -7 15 l-6 -29 -18 27 c-25 38 -37 34 -37 -13z"/>
</g>
</svg>
